<svg width="628" height="628" viewBox="0 0 628 628" fill="none" xmlns="http://www.w3.org/2000/svg">
<path d="M103.32 103.32H524.68V524.68H103.32V103.32Z" fill="white"/>
<path fill-rule="evenodd" clip-rule="evenodd" d="M514.211 113.789H113.789V514.211H514.211V113.789ZM103.32 103.32V524.68H524.68V103.32H103.32Z" fill="#05060F"/>
<path d="M85 85H129.491V129.491H85V85Z" fill="white"/>
<path fill-rule="evenodd" clip-rule="evenodd" d="M119.023 95.4686H95.4686V119.023H119.023V95.4686ZM85 85V129.491H129.491V85H85Z" fill="#05060F"/>
<path d="M85 498.509H129.491V543H85V498.509Z" fill="white"/>
<path fill-rule="evenodd" clip-rule="evenodd" d="M119.023 508.977H95.4686V532.531H119.023V508.977ZM85 498.509V543H129.491V498.509H85Z" fill="#05060F"/>
<path d="M498.509 85H543V129.491H498.509V85Z" fill="white"/>
<path fill-rule="evenodd" clip-rule="evenodd" d="M532.531 95.4686H508.977V119.023H532.531V95.4686ZM498.509 85V129.491H543V85H498.509Z" fill="#05060F"/>
<path d="M498.509 498.509H543V543H498.509V498.509Z" fill="white"/>
<path fill-rule="evenodd" clip-rule="evenodd" d="M532.531 508.977H508.977V532.531H532.531V508.977ZM498.509 498.509V543H543V498.509H498.509Z" fill="#05060F"/>
<path fill-rule="evenodd" clip-rule="evenodd" d="M257.773 381.965C256.142 380.335 255.501 377.959 256.091 375.73L277.422 295.025C277.453 294.909 277.487 294.794 277.524 294.68C279.438 288.783 283.64 283.9 289.185 281.128L289.293 281.075L320.411 266.231C321.768 265.56 323.19 265.114 324.631 264.883C325.329 262.2 326.774 259.7 328.755 257.719L332.935 253.539C338.719 247.755 348.096 247.755 353.879 253.539L387.328 286.988C393.112 292.771 393.112 302.148 387.328 307.932L383.148 312.112C381.144 314.116 378.622 315.552 375.925 316.232C375.666 317.818 375.145 319.38 374.353 320.854L358.615 351.048L358.564 351.145C355.734 356.357 351.012 360.283 345.372 362.115C345.258 362.152 345.143 362.185 345.028 362.216L264.009 383.647C261.78 384.237 259.404 383.596 257.773 381.965ZM362.619 312.531C363.2 313.112 363.33 314.006 362.938 314.728L362.887 314.824L347.155 345.006C345.932 347.233 343.922 348.922 341.52 349.743L283.919 364.98L306.712 342.188C315.46 346.976 325.606 344.58 331.559 338.627C339.967 330.219 339.967 316.588 331.559 308.181C323.152 299.773 309.52 299.773 301.113 308.181C295.111 314.182 293.164 324.498 297.604 332.975L274.751 355.827L289.895 298.531C290.754 296.019 292.561 293.939 294.932 292.738L326.035 277.901L326.143 277.849C326.857 277.492 327.72 277.632 328.284 278.196L362.619 312.531ZM337.445 269.036L371.78 303.371C371.965 303.556 372.109 303.629 372.198 303.663C372.292 303.699 372.404 303.721 372.55 303.713C372.843 303.698 373.394 303.545 373.987 302.952L378.168 298.771C378.892 298.047 378.892 296.872 378.168 296.148L344.719 262.699C343.995 261.975 342.82 261.975 342.096 262.699L337.915 266.88C337.293 267.501 337.141 268.062 337.126 268.335C337.118 268.468 337.137 268.564 337.166 268.642C337.194 268.715 337.26 268.851 337.445 269.036ZM310.655 329.085C314.587 333.017 319.669 332.197 322.399 329.467C325.747 326.118 325.747 320.689 322.399 317.341C319.05 313.993 313.622 313.993 310.273 317.341C307.679 319.935 307.046 325.476 310.655 329.085Z" fill="#05060F"/>
</svg>
